<?xml version="1.0" encoding="utf-8"?>
<!-- Generator: Adobe Illustrator 22.0.1, SVG Export Plug-In . SVG Version: 6.00 Build 0)  -->
<svg version="1.0" id="图层_1" xmlns="http://www.w3.org/2000/svg" xmlns:xlink="http://www.w3.org/1999/xlink" x="0px" y="0px"
	 viewBox="0 0 360 360" style="enable-background:new 0 0 360 360;" xml:space="preserve">
<style type="text/css">
	.st0{fill-rule:evenodd;clip-rule:evenodd;}
</style>
<path class="st0" d="M180.5,14.6c-91.1,0-165,73.9-165,165c0,91.1,73.9,165,165,165s165-73.9,165-165
	C345.5,88.5,271.6,14.6,180.5,14.6z M180.5,322.6c-79,0-143-64-143-143s64-143,143-143s143,64,143,143S259.5,322.6,180.5,322.6z"/>
<g>
	<path d="M96.6,246.7h76.5v-49.5h-62.9v-13.1h62.9v-39.2h-69.6v-13.1h153.3v13.1h-68.9v39.2h62.9v13.1h-62.9v49.5h76.5v12.7H96.6
		V246.7z M166.6,106.4l12.7-6.5c7,10.4,12,18.5,15.1,24.2l-13.6,7.2C174.7,119.9,169.9,111.6,166.6,106.4z"/>
</g>
</svg>
