<?xml version="1.0" encoding="utf-8"?>
<!-- Generator: Adobe Illustrator 22.0.1, SVG Export Plug-In . SVG Version: 6.00 Build 0)  -->
<svg version="1.0" id="图层_1" xmlns="http://www.w3.org/2000/svg" xmlns:xlink="http://www.w3.org/1999/xlink" x="0px" y="0px"
	 viewBox="0 0 360 360" style="enable-background:new 0 0 360 360;" xml:space="preserve">
<g>
	<g>
		<path d="M139.2,234.6V214h-20.6v20.6H139.2z M173.6,234.6V214H153v20.6H173.6z M104.9,234.6V214H84.2v20.6H104.9z M70.5,234.6V214
			H49.8v20.6H70.5z M212.8,262H49.7c-10.5,0-20.4-8.6-20.4-19.1V138.2h281.9v38.7c1.3,2.6,4.8,4.2,7.6,4c4-0.3,5.8-3.8,5.9-4V81.3
			c0-14-11.5-25.5-25.5-25.5H41c-14,0-25.5,11.5-25.5,25.5v169c0,14,11.5,25.5,25.5,25.5h171.8c2.6-1.1,4.2-4.3,4.2-7.1
			C217,265.9,215.3,263.1,212.8,262z M29.2,88.7c0-10.5,8.6-19.1,19.2-19.1h243.6c10.5,0,19.2,8.6,19.2,19.1v35.8H29.2V88.7z
			 M283.6,179.4c-34.2,0-61.9,27.7-61.9,61.9c0,34.2,27.7,61.9,61.9,61.9c34.2,0,61.9-27.7,61.9-61.9
			C345.5,207.1,317.8,179.4,283.6,179.4z M283.6,289.4c-26.6,0-48.1-21.5-48.1-48.1c0-26.6,21.5-48.1,48.1-48.1
			c26.6,0,48.1,21.5,48.1,48.1C331.8,267.8,310.2,289.4,283.6,289.4z M249.7,231.5c0.1,0.4,0.3,0.8,0.5,1.2c0.1,0.2,0.2,0.5,0.3,0.7
			c0.1,0.2,0.3,0.3,0.5,0.5c0.3,0.3,0.6,0.6,0.9,0.9c0.4,0.3,0.7,0.6,1.2,0.8c0.4,0.2,0.7,0.3,1.1,0.4c0.5,0.1,0.9,0.2,1.4,0.3
			c0.2,0,0.4,0.1,0.6,0.1h55c3.8,0,6.9-3.1,6.9-6.9c0-3.8-3.1-6.9-6.9-6.9h-33.2l4.7-3.3c3.1-2.2,3.9-6.5,1.7-9.6
			c-2.2-3.1-6.5-3.9-9.6-1.7l-22.5,15.8c-0.2,0.1-0.3,0.3-0.4,0.4c-0.3,0.3-0.6,0.6-0.9,1c-0.3,0.4-0.5,0.7-0.7,1.1
			c-0.2,0.4-0.3,0.8-0.5,1.2c-0.1,0.5-0.2,0.9-0.3,1.4c0,0.2-0.1,0.4-0.1,0.6c0,0.2,0.1,0.4,0.1,0.7
			C249.5,230.6,249.5,231.1,249.7,231.5z M317.6,250.8c-0.1-0.4-0.3-0.8-0.5-1.2c-0.1-0.2-0.2-0.5-0.3-0.7c-0.1-0.2-0.3-0.3-0.5-0.5
			c-0.3-0.3-0.6-0.6-0.9-0.9c-0.4-0.3-0.7-0.6-1.2-0.8c-0.4-0.2-0.7-0.3-1.1-0.4c-0.5-0.1-0.9-0.2-1.4-0.3c-0.2,0-0.4-0.1-0.6-0.1
			h-55c-3.8,0-6.9,3.1-6.9,6.9c0,3.8,3.1,6.9,6.9,6.9h33.2l-4.7,3.3c-3.1,2.2-3.9,6.5-1.7,9.6c2.2,3.1,6.5,3.9,9.6,1.7l22.5-15.8
			c0.2-0.1,0.3-0.3,0.4-0.4c0.3-0.3,0.6-0.6,0.9-1c0.3-0.4,0.5-0.7,0.7-1.1c0.2-0.4,0.3-0.8,0.5-1.2c0.1-0.5,0.2-0.9,0.3-1.4
			c0-0.2,0.1-0.4,0.1-0.6c0-0.2-0.1-0.4-0.1-0.7C317.8,251.7,317.7,251.3,317.6,250.8z"/>
	</g>
</g>
</svg>
