<?xml version="1.0" encoding="utf-8"?>
<!-- Generator: Adobe Illustrator 22.0.1, SVG Export Plug-In . SVG Version: 6.00 Build 0)  -->
<svg version="1.0" id="图层_1" xmlns="http://www.w3.org/2000/svg" xmlns:xlink="http://www.w3.org/1999/xlink" x="0px" y="0px"
	 viewBox="0 0 360 360" style="enable-background:new 0 0 360 360;" xml:space="preserve">
<g>
	<g>
		<path d="M180.5,15.5c-91.1,0-165,73.9-165,165c0,91.1,73.9,165,165,165c91.1,0,165-73.9,165-165C345.5,89.4,271.6,15.5,180.5,15.5
			z M180.5,331.8C97,331.8,29.2,264,29.2,180.5C29.2,96.9,97,29.2,180.5,29.2c83.6,0,151.3,67.7,151.3,151.3
			C331.8,264,264.1,331.8,180.5,331.8z M269.9,146.1H114.3l38.2-24.8c3.2-2.1,4.1-6.3,2-9.5c-2.1-3.2-6.3-4.1-9.5-2l-57.7,37.5
			c-0.2,0.1-0.3,0.3-0.5,0.5c-0.4,0.3-0.7,0.6-1,0.9s-0.5,0.7-0.7,1.1c-0.2,0.4-0.4,0.8-0.5,1.2c-0.1,0.5-0.2,0.9-0.3,1.4
			c0,0.2-0.1,0.4-0.1,0.7c0,0.2,0.1,0.4,0.1,0.6c0,0.5,0.1,0.9,0.3,1.4c0.1,0.4,0.3,0.8,0.5,1.2c0.1,0.2,0.1,0.4,0.2,0.6
			c0.1,0.2,0.4,0.3,0.5,0.6c0.3,0.3,0.5,0.6,0.9,0.9c0.4,0.3,0.7,0.6,1.2,0.8c0.4,0.2,0.7,0.3,1.1,0.5c0.5,0.1,0.9,0.2,1.4,0.3
			c0.2,0,0.4,0.1,0.7,0.1h178.8c3.8,0,6.9-3.1,6.9-6.9C276.8,149.2,273.7,146.1,269.9,146.1z M276.4,206c-0.1-0.4-0.3-0.8-0.5-1.2
			c-0.1-0.2-0.1-0.4-0.2-0.6c-0.1-0.2-0.4-0.4-0.5-0.6c-0.3-0.3-0.5-0.6-0.9-0.9c-0.4-0.3-0.7-0.6-1.2-0.8c-0.4-0.2-0.7-0.3-1.1-0.5
			c-0.5-0.1-0.9-0.2-1.4-0.3c-0.2,0-0.4-0.1-0.7-0.1H91.1c-3.8,0-6.9,3.1-6.9,6.9c0,3.8,3.1,6.9,6.9,6.9h155.6l-38.2,24.8
			c-3.2,2.1-4.1,6.3-2,9.5c2.1,3.2,6.3,4.1,9.5,2l57.7-37.5c0.2-0.1,0.3-0.3,0.5-0.5c0.4-0.3,0.7-0.6,1-0.9c0.3-0.4,0.5-0.7,0.7-1.1
			c0.2-0.4,0.4-0.8,0.5-1.2c0.1-0.5,0.2-0.9,0.3-1.4c0-0.2,0.1-0.4,0.1-0.7c0-0.2-0.1-0.4-0.1-0.6
			C276.6,206.9,276.5,206.5,276.4,206z"/>
	</g>
</g>
</svg>
