<?xml version="1.0" encoding="utf-8"?>
<!-- Generator: Adobe Illustrator 22.0.1, SVG Export Plug-In . SVG Version: 6.00 Build 0)  -->
<svg version="1.0" id="图层_1" xmlns="http://www.w3.org/2000/svg" xmlns:xlink="http://www.w3.org/1999/xlink" x="0px" y="0px"
	 viewBox="0 0 360 360" style="enable-background:new 0 0 360 360;" xml:space="preserve">
<g>
	<g>
		<path d="M318,15.5H43c-15.1,0-27.5,12.4-27.5,27.5V318c0,15.1,12.4,27.5,27.5,27.5h275c15.1,0,27.5-12.4,27.5-27.5V43
			C345.5,27.9,333.1,15.5,318,15.5z M331.8,311.1c0,11.3-9.3,20.6-20.6,20.6H49.9c-11.3,0-20.6-9.3-20.6-20.6V49.9
			c0-11.3,9.3-20.6,20.6-20.6h261.2c11.3,0,20.6,9.3,20.6,20.6V311.1z M243.6,108.1c-2.1,1.9-8.9,8.9-10.9,10.9l9.3,9.4
			c2-2,9.1-8.8,11-10.9c2.4-2.6,2.1-6.7-0.3-9.1C250.3,106,246.2,105.8,243.6,108.1z M224,127.6c-17.5,17.4-92.4,92.2-109.9,109.6
			c-1.5,1.5-2.8,3.2-3.6,5.2c-1.4,3.1-2.6,6.2-3.9,9.4c-0.6,1.5-0.4,2,0.7,2.8l0.7,0c3-1.2,5.9-2.4,8.9-3.7c3.1-1.3,5.8-3.1,8.2-5.5
			c17-17,91.4-91.3,108.4-108.2c0.3-0.3,0.6-0.5,0.8-0.7l-9.7-9.7C224.4,127,224.3,127.3,224,127.6z"/>
	</g>
</g>
</svg>
