<?xml version="1.0" encoding="utf-8"?>
<!-- Generator: Adobe Illustrator 22.0.1, SVG Export Plug-In . SVG Version: 6.00 Build 0)  -->
<svg version="1.0" id="图层_1" xmlns="http://www.w3.org/2000/svg" xmlns:xlink="http://www.w3.org/1999/xlink" x="0px" y="0px"
	 viewBox="0 0 360 360" style="enable-background:new 0 0 360 360;" xml:space="preserve">
<g>
	<g>
		<path d="M87.1,129.8C87.1,129.8,87.1,129.8,87.1,129.8c0-55.5,41.4-100.4,92.4-100.4c51,0,92.4,45,92.4,100.4c0,0,0,0,0,0l13.2,0
			c0,0,0,0,0,0C285.1,66.4,237.8,15,179.5,15C121.2,15,73.9,66.4,73.9,129.8c0,0,0,0,0,0L87.1,129.8z M285.1,144.1H73.9
			c-15.5,0-28.2,12.9-28.2,28.7v143.5c0,15.8,12.7,28.7,28.2,28.7h211.2c15.5,0,28.2-12.9,28.2-28.7V172.8
			C313.2,157,300.6,144.1,285.1,144.1z M299.2,309.1c0,11.8-9.5,21.5-21.1,21.5H80.9c-11.6,0-21.1-9.7-21.1-21.5V180
			c0-11.8,9.5-21.5,21.1-21.5h197.1c11.6,0,21.1,9.7,21.1,21.5V309.1z M179.5,208.7c-7.7,0-14.1,6.5-14.1,14.3v43
			c0,7.9,6.3,14.3,14.1,14.3c7.7,0,14.1-6.5,14.1-14.3v-43C193.6,215.2,187.2,208.7,179.5,208.7z"/>
	</g>
</g>
</svg>
