<?xml version="1.0" encoding="utf-8"?>
<!-- Generator: Adobe Illustrator 22.0.1, SVG Export Plug-In . SVG Version: 6.00 Build 0)  -->
<svg version="1.0" id="图层_1" xmlns="http://www.w3.org/2000/svg" xmlns:xlink="http://www.w3.org/1999/xlink" x="0px" y="0px"
	 viewBox="0 0 360 360" style="enable-background:new 0 0 360 360;" xml:space="preserve">
<g>
	<g>
		<path d="M196.9,203.9v-75h-9.1v75H196.9z M176.7,156.2l6.5-7.5c-9.2-9.7-18.8-19.4-28.8-28.9l1.5-2.6H145
			c-9.3,17.4-20.4,31.1-33.3,41.3c1.3,1.9,3.1,4.8,5.4,8.8c2.4-2,4.9-4.3,7.4-6.7v56.6c0,9.9,4.8,14.9,14.5,14.9h23.5
			c9.1,0,14.7-3.8,16.7-11.3c1.2-4.5,2.2-9.5,3-14.9c-3.2-1.1-6.3-2.2-9.3-3.5c-0.5,5.8-1.2,10.7-2.1,14.6
			c-0.8,4.2-4.3,6.3-10.5,6.3h-19.4c-4.7,0-7.1-2.3-7.1-6.8v-48.8h31.3c-0.2,5.2-0.5,9.7-0.7,13.6c-0.4,7.5-3.4,11.2-9.1,11.1
			c-4.8-0.1-9.8-0.6-15.1-1.5c0.6,2.9,1.2,6.2,1.7,9.7c6.1,0.2,11.2,0.4,15.4,0.4c10.3,0,15.7-6,16.1-18.1
			c0.3-4.5,0.7-12.5,1.2-23.7h-48.6c8.2-8.4,16.1-18.9,23.9-31.5C159.3,137,168.2,146.5,176.7,156.2z M212.5,216.3
			c0,5.2-2.6,7.8-7.7,7.8c-3.4,0-9.3-0.4-17.6-1.1c0.9,3.7,1.5,7.3,1.9,11.1c9.1,0.1,15.2,0.1,18.5,0.1c9.5-0.1,14.3-5.1,14.3-15
			V118.1h-9.4V216.3z M342.8,219.2l-40.3-28.5c-2.8-2-6.6-1.2-8.5,1.6c-1.9,2.9-1.2,6.8,1.6,8.8l24.8,17.5
			c-35.7,0-90.3,2.9-90.3,68.6c0,3.5,2.7,6.3,6.1,6.3s6.1-2.8,6.1-6.3c0.7-59,49.4-56.1,76.7-56.1l-23.5,16.6
			c-2.8,2-3.5,5.9-1.6,8.8c1.9,2.9,5.7,3.6,8.5,1.6l40.3-28.5c1.7-1.2,2.5-3.2,2.5-5.2C345.3,222.4,344.5,220.4,342.8,219.2z
			 M210.5,281.1H42.2c-8.6,0-15.6-7.2-15.6-16.2V95.2c0-8.5,6.7-15.4,14.9-15.4h253.3c8.2,0,14.8,6.9,14.8,15.3v85.3
			c0.3,2.9,2.7,5.1,5.5,5c2.7,0,5-2.1,5.4-4.9V87.7c0-11.5-9-20.8-20.1-20.8h-264c-11.7,0-21.2,9.8-21.2,21.9v184.8
			c0,11.1,8.7,20,19.3,20h175.8c2.8-0.5,4.9-2.7,5.2-5.4C216.1,285,213.9,281.8,210.5,281.1z"/>
	</g>
</g>
</svg>
