<?xml version="1.0" encoding="utf-8"?>
<!-- Generator: Adobe Illustrator 22.0.1, SVG Export Plug-In . SVG Version: 6.00 Build 0)  -->
<svg version="1.0" id="图层_1" xmlns="http://www.w3.org/2000/svg" xmlns:xlink="http://www.w3.org/1999/xlink" x="0px" y="0px"
	 viewBox="0 0 360 360" style="enable-background:new 0 0 360 360;" xml:space="preserve">
<path d="M232,79l-56.5,74.6l-55.1-74.7c-3.4-2.2-7.9-1.6-10.7,1.2c-2.9,2.9-3.2,7.6-0.8,11.1c6,8.3,12.1,16.6,18.1,25.1
	c10,13.9,21.7,30.4,29,41.2h-29.1c-7.8,0-11.7,1.2-11.7,7.3c0.7,4.8,4.6,5.7,11.7,6.3h40.3v22h-40.3c-7.8,0-11.7,1.2-11.7,7.3
	c0.7,4.7,4.6,5.2,11.7,5.9h40.3v43.2c0,6.8,0.6,10.2,8.4,10.2c7.7,0,7.5-3.4,7.5-10.2v-43.1h41.2c7-0.7,10.9-1.1,11.7-5.9
	c0-6.1-3.9-7.3-11.7-7.3H183v-22h41.2c7-0.7,10.9-1.5,11.7-6.3c0-6.1-3.9-7.3-11.7-7.3h-30l48-66.2c2.7-3.4,2.4-8.3-0.5-11.1
	C239.3,77.7,235.3,77.2,232,79z M321,217.7l-26,6.1c-2.9,0.3-5.4,2.1-6.6,4.7c-1.2,2.5-0.8,5.6,0.8,7.8l2.7,3.6l-121.4,86.8
	l-32.3-38.8c-3.3-3.9-9.3-4.7-13.5-1.7c-13.5,9.7-36.4,23.7-36.4,23.7c-4.5,2.5-5.8,8.2-3.4,12c2.1,3.3,6.6,4.7,10.6,3.1
	c11.1-7.6,22.2-15.2,33.3-22.8l32.3,38.8c1.9,2.3,4.8,3.5,7.6,3.5c2,0,4.1-0.6,5.9-1.9l127.5-91.7l2,2.6c1.5,2,4,3.2,6.6,3.2
	c0.3,0,0.6,0,0.8,0c2.9-0.3,5.4-2.1,6.6-4.7l11.1-23.4c1.1-2.6,0.8-5.6-0.9-7.9C326.7,218.6,323.9,217.4,321,217.7z M175.5,14.5
	c-91,0-165,71.5-165,159.4c0,42.6,17.2,82.6,48.3,112.7c1.9,1.9,8,5.7,11.9,1.8c6.1-6,1.1-11.5-2.7-15.2
	c-27.5-26.5-42.6-61.8-42.6-99.3c0-77.5,69.8-145.1,150-145.1c78.1,0,145.9,68.5,149.4,143.6c0.1,2-1,10.5,8.7,10.5
	c5.4,0,6.9-3.8,6.9-9C340.5,86,266.5,14.5,175.5,14.5L175.5,14.5z M175.5,14.5"/>
</svg>
