<?xml version="1.0" encoding="utf-8"?>
<!-- Generator: Adobe Illustrator 22.0.1, SVG Export Plug-In . SVG Version: 6.00 Build 0)  -->
<svg version="1.0" id="图层_1" xmlns="http://www.w3.org/2000/svg" xmlns:xlink="http://www.w3.org/1999/xlink" x="0px" y="0px"
	 viewBox="0 0 360 360" style="enable-background:new 0 0 360 360;" xml:space="preserve">
<g>
	<g>
		<path d="M160.9,192.4c3.3,0,5.8-0.9,7.4-2.8c1.7-1.9,2.5-4.4,2.5-7.6v-14.2c0-3.3-0.7-5.6-2.1-7c-1.4-1.4-3.7-2.1-7-2.1h-43.5
			c-3.3,0-5.6,0.7-7.1,2.1c-1.5,1.4-2.2,3.7-2.2,7v30.7c0,3.9,0.3,7.1,1,9.7c0.7,2.5,1.9,4.6,3.6,6.1c1.7,1.5,4,2.7,6.8,3.4
			c2.9,0.8,6.4,1.3,10.7,1.5c2.9,0.2,5.7,0.4,8.6,0.5c3.2,0.2,6.4,0.2,9.5,0.2c3.2,0,6.3,0,9.2-0.1c2.6-0.1,5.1-0.3,7.6-0.6
			c3.6-0.5,6.6-1.1,9.2-1.8c2.6-0.8,4.7-2,6.2-3.7c1.6-1.7,2.8-4,3.6-7.1c0.8-3.1,1.2-7.2,1.3-12.4c0-2.4-0.5-4.1-1.5-5.2
			c-1-1-2.4-1.5-4.1-1.5c-2.2,0-3.6,0.6-4.4,1.9c-0.8,1.3-1.1,3-0.9,5.3c0.1,2.7,0,4.9-0.2,6.5c-0.2,1.6-0.8,2.9-1.7,3.9
			c-0.9,1-2.1,1.7-3.7,2.2c-1.6,0.5-3.6,1-6,1.3c-2.2,0.3-4.4,0.5-6.7,0.6c-6.2,0.2-12.4,0.2-18.7,0c-3.1-0.1-5.8-0.2-7.9-0.4
			c-3.9-0.3-6.7-1.2-8.4-2.7c-1.7-1.5-2.5-3.3-2.5-5.3v-8.6H160.9z M119.6,170.7c0-0.8,0.1-1.2,0.3-1.4c0.2-0.2,0.5-0.3,1-0.3h38
			c0.6,0,1,0.1,1.2,0.3c0.2,0.2,0.3,0.7,0.3,1.4v8.4c0,2-1,2.9-2.9,2.9h-37.9V170.7z M82.8,118.9c1.4,2.2,2.8,3.4,4.1,3.7
			c1.4,0.3,2.8-0.1,4.3-1.2c1.5-1.2,2.2-2.4,2.3-3.7c0-1.2-0.7-2.8-2-4.8c-2.2-3.2-4.5-6.3-6.9-9.4c-2.5-3.1-5-6.1-7.7-9
			c-1.7-2-3.1-3-4.3-3.1c-1.2-0.1-2.4,0.4-3.7,1.4c-1.6,1.3-2.4,2.6-2.3,3.9c0,1.3,0.9,2.8,2.5,4.7c2.5,2.7,4.9,5.5,7.2,8.4
			C78.5,112.9,80.7,115.9,82.8,118.9z M194.4,172.4c1.5-3,0.1-6-4.2-8.9c-3.8-2.4-7.5-5.1-10.8-8.1c-3.6-3.2-7.4-7.3-11.2-12.1h19.9
			c3.7,0,5.6-1.7,5.6-5.2c0-1.8-0.4-3.1-1.3-3.9c-0.8-0.8-2.3-1.3-4.3-1.3h-23.4v-16.3H185c1.9,0,3.3-0.4,4.2-1.2
			c0.9-0.8,1.4-2.1,1.4-4c0-1.8-0.4-3.1-1.3-3.9c-0.8-0.8-2.3-1.3-4.3-1.3l0,0h-20.3V94.2c0-3.8-1.8-5.6-5.3-5.6
			c-3.6,0-5.3,1.9-5.3,5.6v12.1h-28.5V94.4c0-3.7-1.7-5.6-5.2-5.6c-3.6,0-5.5,1.9-5.5,5.6v11.9H99.7c-3.7,0-5.6,1.7-5.6,5.2
			c0,1.9,0.5,3.2,1.4,4c0.9,0.8,2.3,1.2,4.2,1.2h15.2V133h-24c-2,0-3.4,0.4-4.2,1.3c-0.8,0.8-1.3,2.2-1.3,3.9c0,3.5,1.8,5.2,5.5,5.2
			h19.4c-3.1,4.5-6.2,8.2-9.5,11.2c-3.2,3-6.9,5.6-10.9,8c-1.6,1-2.7,2.3-3.4,3.7c-0.7,1.4-0.6,3,0.2,4.5c1,1.7,2.3,2.5,3.9,2.5
			c1.5-0.1,3.4-0.7,5.5-2c2.6-1.6,5.1-3.3,7.3-5.1c2.3-1.8,4.4-3.8,6.5-6c2.1-2.2,4.2-4.7,6.3-7.4c2.1-2.8,4.2-5.9,6.3-9.5h33.3
			c5.4,7.3,10.3,13.2,14.7,17.7c4.4,4.5,8.8,8.3,13.1,11.2c3.1,2.1,5.4,3.2,7,3.2C192.1,175.4,193.4,174.4,194.4,172.4z M154,133
			h-28.5v-16.3H154V133z M62.3,220c1.8,1.4,3.4,2,4.8,1.6c1.4-0.3,2.9-1.7,4.5-4.1c1.8-2.9,3.5-5.8,5.3-8.8c1.5-2.7,3-5.3,4.4-7.9
			c1.5-2.7,2.8-5.5,4.1-8.4c1.6-3.4,3.1-6.9,4.6-10.3c1-2.2,1.4-4,1.1-5.4c-0.3-1.4-1.5-2.4-3.4-3c-3.3-1.1-5.6,0.5-7,4.8
			c-1.1,3.2-2.4,6.4-3.7,9.6c-1.2,2.8-2.4,5.4-3.8,7.8c-1.4,2.4-2.8,4.8-4.4,7.2c-1.5,2.4-3.3,5-5.3,7.8c-1.6,2.2-2.5,4-2.7,5.4
			C60.5,217.7,61,219,62.3,220z M61.8,131.3c-2.7,2.7-2.4,5.5,1,8.4c2.8,2.6,5.5,5.3,8.2,8.1c2.6,2.7,4.8,5.1,6.5,7.2
			c1.4,1.8,2.8,2.9,4.1,3.3c1.4,0.4,2.8,0,4.3-1.2c1.5-1.2,2.2-2.6,2-4.1c-0.1-1.5-1-3.1-2.5-4.9c-1.7-2.1-3.9-4.5-6.7-7.4
			c-2.8-2.9-5.7-5.7-8.6-8.4c-2-1.9-3.5-2.8-4.6-2.9C64.4,129.3,63.2,130,61.8,131.3z M332.6,160.1L332.6,160.1c0-0.4,0-0.9-0.1-1.3
			c-0.1-0.4-0.3-0.9-0.4-1.3c0,0,0,0,0,0c0,0,0,0,0-0.1c-0.1-0.3-0.1-0.5-0.3-0.8c-0.1-0.1-0.2-0.2-0.3-0.3
			c-0.2-0.3-0.5-0.6-0.8-0.9c-0.1-0.1-0.2-0.2-0.4-0.4c-0.2-0.2-0.5-0.5-0.7-0.6c-0.1-0.1-0.2-0.2-0.3-0.3l-47.6-27.5
			c-3.3-1.9-7.5-0.8-9.4,2.5s-0.8,7.5,2.5,9.4l25.4,14.7h-84.5c-3.8,0-6.9,3.1-6.9,6.9s3.1,6.9,6.9,6.9h84.5l-25.4,14.7
			c-3.3,1.9-4.4,6.1-2.5,9.4s6.1,4.4,9.4,2.5l47.6-27.5c0.1-0.1,0.2-0.2,0.3-0.3c0.3-0.2,0.5-0.4,0.7-0.6c0.1-0.1,0.3-0.2,0.4-0.4
			c0.3-0.3,0.6-0.6,0.8-0.9c0.1-0.1,0.2-0.2,0.3-0.3c0.1-0.2,0.2-0.5,0.3-0.8c0,0,0,0,0-0.1c0,0,0,0,0,0c0.2-0.4,0.3-0.8,0.4-1.3
			C332.6,161,332.6,160.5,332.6,160.1L332.6,160.1C332.6,160.1,332.6,160.1,332.6,160.1z M318.8,208.2h-84.5l25.4-14.7
			c3.3-1.9,4.4-6.1,2.5-9.4s-6.1-4.4-9.4-2.5l-47.6,27.5c-0.1,0.1-0.2,0.2-0.3,0.3c-0.3,0.2-0.5,0.4-0.7,0.6
			c-0.1,0.1-0.3,0.2-0.4,0.4c-0.3,0.3-0.6,0.6-0.8,0.9c-0.1,0.1-0.2,0.2-0.3,0.3c-0.1,0.2-0.2,0.5-0.3,0.8c0,0,0,0,0,0.1
			c0,0,0,0,0,0c-0.2,0.4-0.3,0.8-0.4,1.3c-0.1,0.4-0.1,0.9-0.1,1.3c0,0,0,0,0,0l0,0c0,0.4,0,0.9,0.1,1.3c0.1,0.4,0.3,0.9,0.4,1.3
			c0,0,0,0,0,0c0,0,0,0,0,0.1c0.1,0.3,0.1,0.5,0.3,0.8c0.1,0.1,0.2,0.2,0.3,0.3c0.2,0.3,0.5,0.6,0.8,0.9c0.1,0.1,0.2,0.2,0.4,0.4
			c0.2,0.2,0.5,0.5,0.7,0.6c0.1,0.1,0.2,0.2,0.3,0.3l47.6,27.5c3.3,1.9,7.5,0.8,9.4-2.5s0.8-7.5-2.5-9.4L234.4,222h84.5
			c3.8,0,6.9-3.1,6.9-6.9S322.6,208.2,318.8,208.2z M295,256.1c-3.8,0-6.9,3.1-6.9,6.9c0,0,0,0,0,0h0v48.1
			c0,11.3-9.3,20.6-20.6,20.6H116.2c-11.3,0-20.6-9.3-20.6-20.6v-20.6h123.7c15.1,0,27.5-12.4,27.5-27.5h0c0,0,0,0,0,0
			c0-3.8-3.1-6.9-6.9-6.9c-3.8,0-6.9,3.1-6.9,6.9c0,0,0,0,0,0h0c0,11.3-9.3,13.8-20.6,13.8H61.2c-11.3,0-20.6-9.3-20.6-20.6V49.8
			c0-11.3,9.3-20.6,20.6-20.6h151.2c11.3,0,20.6,9.3,20.6,20.6v61.9h0.1c0,0.2-0.1,0.4-0.1,0.6c0,3.8,3.1,6.9,6.9,6.9
			c3.8,0,6.9-3.1,6.9-6.9c0-0.2-0.1-0.4-0.1-0.6h0.1V84.2h20.6c11.3,0,20.6,9.3,20.6,20.6v6.9h0.1c0,0.2-0.1,0.4-0.1,0.6
			c0,3.8,3.1,6.9,6.9,6.9s6.9-3.1,6.9-6.9c0-0.2-0.1-0.4-0.1-0.6h0.1V98c0-15.1-12.4-27.5-27.5-27.5h-27.5V43
			c0-15.1-12.4-27.5-27.5-27.5h-165c-15.1,0-27.5,12.4-27.5,27.5v220c0,15.1,12.4,27.5,27.5,27.5h27.5V318
			c0,15.1,12.4,27.5,27.5,27.5h165c15.1,0,27.5-12.4,27.5-27.5v-55h0c0,0,0,0,0,0C301.9,259.1,298.8,256.1,295,256.1z"/>
	</g>
</g>
</svg>
