<?xml version="1.0" encoding="utf-8"?>
<!-- Generator: Adobe Illustrator 22.0.1, SVG Export Plug-In . SVG Version: 6.00 Build 0)  -->
<svg version="1.0" id="图层_1" xmlns="http://www.w3.org/2000/svg" xmlns:xlink="http://www.w3.org/1999/xlink" x="0px" y="0px"
	 viewBox="0 0 360 360" style="enable-background:new 0 0 360 360;" xml:space="preserve">
<path d="M323.5,79.2h-39.1V48.5c0-14-7.3-28.5-21.7-28.5H106.4c-14.4,0-30.2,14.5-30.2,28.5v30.7H45.7c-14.4,0-30.2,14.5-30.2,28.5
	v93.1c0,14,15.8,22.1,30.2,22.1h30.6v95c0,14,7.8,22,22.2,22h164.3c14.4,0,21.7-8,21.7-22v-95h39.1c14.4,0,22-8.1,22-22.1v-93.1
	C345.5,93.8,337.9,79.2,323.5,79.2L323.5,79.2z M93.6,48.5c0-4.7,8.1-11.9,12.9-11.9h156.3c4.8,0,4.3,7.3,4.3,11.9v30.7H93.6V48.5z
	 M267.1,314.8c0,4.7-3.8,8.7-8.6,8.7H102.2c-4.8,0-8.6-4-8.6-8.7V189.2c0-4.7,3.8-8.5,8.6-8.5h156.3c4.8,0,8.6,3.8,8.6,8.5V314.8z
	 M327.8,200.9c0,4.7,0.5,5.2-4.3,5.2h-39.1v-13.7c0-14-7.3-28.6-21.7-28.6H99.4c-14.4,0-23.2,14.6-23.2,28.6v13.7H45.7
	c-4.8,0-12.8-0.5-12.8-5.2v-93.1c0-4.7,8-11.6,12.8-11.6h277.9c4.8,0,4.3,7,4.3,11.6V200.9z M242,218.3H120.4
	c-4.8,0-8.7,3.6-8.7,8.3c0,4.7,3.9,8.3,8.7,8.3H242c4.8,0,8.7-3.6,8.7-8.3C250.7,221.8,246.8,218.3,242,218.3L242,218.3z M242,267.2
	H120.4c-4.8,0-8.7,3.8-8.7,8.5c0,4.7,3.9,8.5,8.7,8.5H242c4.8,0,8.7-3.8,8.7-8.5C250.7,270.9,246.8,267.2,242,267.2L242,267.2z
	 M281.9,117.2c0,6.9,5.7,12.5,12.8,12.5c7.1,0,12.8-5.6,12.8-12.5c0-6.9-5.7-12.5-12.8-12.5C287.6,104.7,281.9,110.3,281.9,117.2
	L281.9,117.2z M281.9,117.2"/>
</svg>
