<?xml version="1.0" encoding="utf-8"?>
<!-- Generator: Adobe Illustrator 22.0.1, SVG Export Plug-In . SVG Version: 6.00 Build 0)  -->
<svg version="1.0" id="图层_1" xmlns="http://www.w3.org/2000/svg" xmlns:xlink="http://www.w3.org/1999/xlink" x="0px" y="0px"
	 viewBox="0 0 360 360" style="enable-background:new 0 0 360 360;" xml:space="preserve">
<g>
	<g>
		<path d="M338.6,308.9H312V196.5c0-3.6-3-6.6-6.6-6.6c-3.6,0-6.6,3-6.6,6.6v112.4H140.7V196.5c0-3.6-3-6.6-6.6-6.6
			c-3.6,0-6.6,3-6.6,6.6v112.4H63V196.5c0-3.6-3-6.6-6.6-6.6c-3.6,0-6.6,3-6.6,6.6v112.4H24.6c-3.6,0-6.6,3-6.6,6.6
			c0,3.6,3,6.6,6.6,6.6h314c3.6,0,6.6-3,6.6-6.6C345.2,311.8,342.2,308.9,338.6,308.9z M41.6,172.3c5.1,2.1,10.2,3.1,15.4,3.1
			c14.4,0,24.4-8.4,30.2-15c5.9,6.8,16.2,15.4,30.9,15.5h0.7c14.9,0,25.9-8.1,32-14.2c2.5,2.6,5.9,5.6,9.9,8.3l0.8,0.5
			c0.7,0.3,1.2,0.8,1.8,1.2c0.5,0.3,1,0.5,1.5,0.8l0.5,0.3l1,0.5c0.5,0.2,1,0.5,1.5,0.7l0.5,0.2c0.5,0.2,0.8,0.3,1.3,0.5
			c0.3,0.2,0.7,0.2,1.2,0.3c0.8,0.3,1.7,0.5,2.6,0.8c2.5,0.7,4.8,0.8,7.1,0.8h0.2c2.3,0,4.6-0.3,6.8-0.8c0.2,0,0.3,0,0.5-0.2
			c0.8-0.2,1.7-0.5,2.6-0.8c0.3-0.2,0.7-0.2,1-0.3c0.5-0.2,0.8-0.3,1.3-0.5l0.5-0.2c0.5-0.2,1-0.3,1.5-0.7l1-0.5l0.5-0.3
			c0.5-0.3,1-0.5,1.5-0.8c0.7-0.3,1.2-0.7,2-1.2l0.5-0.3c4-2.6,7.3-5.6,9.9-8.3c6.1,6,17.2,14.2,32,14.2h0.7
			c14.5-0.2,24.9-8.8,30.9-15.5c5.8,6.8,15.9,15,30.2,15c5,0,10.2-1,15.4-3.1c27.8-11.2,28.1-38,24.4-50.6c-0.2-0.3-0.2-0.7-0.3-1
			l-37-78.7c-1.2-2.3-3.5-3.8-5.9-3.8h-93.5c-0.3,0-0.7-0.2-1-0.2c-0.2,0-0.5,0.2-0.7,0.2h-50.7c-0.2,0-0.5-0.2-0.7-0.2
			c-0.3,0-0.7,0.2-1,0.2H60.4c-2.5,0-5,1.5-5.9,3.8l-37,78.7c-0.2,0.3-0.3,0.7-0.3,1C13.5,134.3,13.8,161.1,41.6,172.3z M296.6,51.5
			l35,74.4c0.8,3.5,5.5,25.1-16.9,34.2c-3.6,1.5-7.1,2.1-10.4,2.1c-15.4,0-24.3-16.2-24.4-16.2c-0.3-0.5-0.7-1-1.2-1.5l-15-93.1
			H296.6z M250.4,51.5l15.9,97.5c-3.5,4.8-11.6,13.4-23.1,13.6h-0.5c-16,0-26.6-14.7-26.8-14.7l-0.2-0.2L213,51.5H250.4z
			 M160.2,51.3h39.6l2.8,99.3c-2,2.5-5.3,5.8-9.4,8.4l-0.3,0.2c-0.5,0.3-0.8,0.5-1.3,0.8c-0.3,0.2-0.7,0.3-1.2,0.7l-0.3,0.2
			l-0.5,0.2c-0.3,0.2-0.5,0.2-0.8,0.3l-0.3,0.2l-0.3,0.2c-0.2,0.2-0.5,0.2-0.8,0.3l-0.5,0.2c-0.5,0.2-0.8,0.3-1.3,0.5h-0.3
			c-1.5,0.3-2.8,0.5-4,0.5h-0.5c-1.3,0-2.6-0.2-4.1-0.5l-1.5-0.5l-1-0.2c-0.2,0-0.5-0.2-0.7-0.3l-0.3-0.2l-0.3-0.2
			c-0.3-0.2-0.5-0.2-0.8-0.3l-1.2-0.7l-1-0.5c-0.5-0.3-0.8-0.5-1.3-0.8l-0.5-0.3c-4.8-3.1-8.6-7.3-10.4-9.4L160.2,51.3z M147,51.5
			l-2.6,97.9c-3.1,3.6-12.4,13.2-25.6,13.2h-0.5c-12.7-0.2-21.3-10.7-24.3-15l15.7-96H147z M29.7,125.9l35-74.4h31.7l-15.4,95.2
			c-2,3.3-10.6,15.4-24,15.4c-3.3,0-6.8-0.7-10.4-2.1C24.4,151.2,28.7,129.8,29.7,125.9z M102,234.1v25.1c0,3.6,3,6.6,6.6,6.6
			c3.6,0,6.6-3,6.6-6.6v-25.1c0-3.6-3-6.6-6.6-6.6C105,227.5,102,230.5,102,234.1z M266.4,205.1c-2.5-2.6-6.8-2.6-9.4,0l-56.8,55.9
			c-2.6,2.5-2.6,6.8,0,9.4c1.3,1.3,3,2,4.6,2c1.7,0,3.3-0.7,4.6-1.8l56.8-55.9C269,211.8,269,207.5,266.4,205.1z M232.5,290.5
			c1.7,0,3.3-0.7,4.6-1.8l32.5-31.9c2.6-2.5,2.6-6.8,0-9.4c-2.5-2.6-6.8-2.6-9.4,0l-32.4,31.9c-2.6,2.5-2.6,6.8,0,9.4
			C229.1,289.9,230.9,290.5,232.5,290.5z"/>
	</g>
</g>
</svg>
