<?xml version="1.0" encoding="utf-8"?>
<!-- Generator: Adobe Illustrator 22.0.1, SVG Export Plug-In . SVG Version: 6.00 Build 0)  -->
<svg version="1.0" id="图层_1" xmlns="http://www.w3.org/2000/svg" xmlns:xlink="http://www.w3.org/1999/xlink" x="0px" y="0px"
	 viewBox="0 0 360 360" style="enable-background:new 0 0 360 360;" xml:space="preserve">
<g>
	<g>
		<path d="M136.2,235.6V215h-20.6v20.6H136.2z M170.6,235.6V215H150v20.6H170.6z M101.9,235.6V215H81.2v20.6H101.9z M67.5,235.6V215
			H46.8v20.6H67.5z M209.8,263H46.7c-10.5,0-20.4-8.6-20.4-19.1V139.2h281.9v38.7c1.3,2.6,4.8,4.2,7.6,4c4-0.3,5.8-3.8,5.9-4V82.3
			c0-14-11.5-25.5-25.5-25.5H38c-14,0-25.5,11.5-25.5,25.5v169c0,14,11.5,25.5,25.5,25.5h171.8c2.6-1.1,4.2-4.3,4.2-7.1
			C214,266.9,212.3,264.1,209.8,263z M26.2,89.7c0-10.5,8.6-19.1,19.2-19.1h243.6c10.5,0,19.2,8.6,19.2,19.1v35.8H26.2V89.7z
			 M280.6,180.4c-34.2,0-61.9,27.7-61.9,61.9c0,34.2,27.7,61.9,61.9,61.9c34.2,0,61.9-27.7,61.9-61.9
			C342.5,208.1,314.8,180.4,280.6,180.4z M280.6,290.4c-26.6,0-48.1-21.5-48.1-48.1c0-26.6,21.5-48.1,48.1-48.1s48.1,21.5,48.1,48.1
			C328.8,268.8,307.2,290.4,280.6,290.4z M308.1,235.4h-20.6v-20.6c0-3.8-3.1-6.9-6.9-6.9c-3.8,0-6.9,3.1-6.9,6.9v20.6h-20.6
			c-3.8,0-6.9,3.1-6.9,6.9c0,3.8,3.1,6.9,6.9,6.9h20.6v20.6c0,3.8,3.1,6.9,6.9,6.9c3.8,0,6.9-3.1,6.9-6.9v-20.6h20.6
			c3.8,0,6.9-3.1,6.9-6.9C315,238.5,311.9,235.4,308.1,235.4z"/>
	</g>
</g>
</svg>
