<?xml version="1.0" encoding="utf-8"?>
<!-- Generator: Adobe Illustrator 22.0.1, SVG Export Plug-In . SVG Version: 6.00 Build 0)  -->
<svg version="1.0" id="图层_1" xmlns="http://www.w3.org/2000/svg" xmlns:xlink="http://www.w3.org/1999/xlink" x="0px" y="0px"
	 viewBox="0 0 360 360" style="enable-background:new 0 0 360 360;" xml:space="preserve">
<g>
	<g>
		<path d="M221.5,290.5H139c-3.8,0-6.9,3.1-6.9,6.9c0,3.8,3.1,6.9,6.9,6.9h82.5c3.8,0,6.9-3.1,6.9-6.9
			C228.4,293.6,225.3,290.5,221.5,290.5z M318,29.2H43c-15.1,0-27.5,12.4-27.5,27.5v220c0,15.1,12.4,27.5,27.5,27.5h41.2v0
			c0,0,0,0,0.1,0c3.8,0,6.9-3.1,6.9-6.9c0-3.8-3.1-6.9-6.9-6.9c0,0,0,0-0.1,0v0H49.9c-11.3,0-20.6-9.3-20.6-20.6V63.6
			c0-11.3,9.3-20.6,20.6-20.6h261.2c11.3,0,20.6,9.3,20.6,20.6v206.3c0,11.3-9.3,20.6-20.6,20.6h-34.4v0c-3.8,0-6.8,3.1-6.8,6.9
			c0,3.8,3,6.8,6.8,6.9v0H318c15.1,0,27.5-12.4,27.5-27.5v-220C345.5,41.6,333.1,29.2,318,29.2z M111.9,263c-3.8,0-6.9,3.1-6.9,6.9
			v55c0,3.8,3.1,6.9,6.9,6.9s6.9-3.1,6.9-6.9v-55C118.8,266.1,115.7,263,111.9,263z M249.2,263c-3.8,0-6.9,3.1-6.9,6.9v55
			c0,3.8,3.1,6.9,6.9,6.9s6.9-3.1,6.9-6.9v-55C256.1,266.1,253,263,249.2,263z M214.9,125.5h82.5c3.8,0,6.9-3.1,6.9-6.9
			c0-3.8-3.1-6.9-6.9-6.9h-82.5c-3.8,0-6.9,3.1-6.9,6.9C208,122.4,211.1,125.5,214.9,125.5z M214.9,166.7h82.5
			c3.8,0,6.9-3.1,6.9-6.9c0-3.8-3.1-6.9-6.9-6.9h-82.5c-3.8,0-6.9,3.1-6.9,6.9C208,163.6,211.1,166.7,214.9,166.7z M166.8,111.7
			c0-22.8-18.5-41.2-41.2-41.2c-22.8,0-41.2,18.5-41.2,41.2c0,22.8,18.5,41.2,41.2,41.2C148.3,153,166.8,134.5,166.8,111.7z
			 M98,111.7c0-15.2,12.3-27.5,27.5-27.5c15.2,0,27.5,12.3,27.5,27.5c0,15.2-12.3,27.5-27.5,27.5C110.3,139.2,98,126.9,98,111.7z
			 M56.8,210.7v3c0,15,23.4,15,53.1,15h31.3c28.5,0,53.1,0,53.1-15v-3c0-28-23.8-50.8-53.1-50.8h-31.3
			C80.6,159.8,56.8,182.6,56.8,210.7z M113,173.6h25c23.4,0,40.2,13.9,42,30.5l0.2,1.8c-0.5,9-19.5,8.9-42.3,8.9h-25
			c-23.7,0-42.3,0-42.3-9l0.2-1.8C73.1,187.9,89.6,173.6,113,173.6z"/>
	</g>
</g>
</svg>
