<?xml version="1.0" encoding="utf-8"?>
<!-- Generator: Adobe Illustrator 22.0.1, SVG Export Plug-In . SVG Version: 6.00 Build 0)  -->
<svg version="1.0" id="图层_1" xmlns="http://www.w3.org/2000/svg" xmlns:xlink="http://www.w3.org/1999/xlink" x="0px" y="0px"
	 viewBox="0 0 360 360" style="enable-background:new 0 0 360 360;" xml:space="preserve">
<style type="text/css">
	.st0{fill-rule:evenodd;clip-rule:evenodd;}
</style>
<path class="st0" d="M180.5,14.7c-91.1,0-165,73.9-165,165c0,91.1,73.9,165,165,165s165-73.9,165-165
	C345.5,88.5,271.6,14.7,180.5,14.7z M180.5,322.7c-79,0-143-64-143-143s64-143,143-143s143,64,143,143S259.4,322.7,180.5,322.7z"/>
<g>
	<path d="M112.2,180.3h19.9v-37h11.5v37h17.7v11.3h-17.7V215c7.1-0.9,14.1-1.8,21.1-2.8c-0.6,4.4-1,8.3-1.2,11.9
		c-5.4,0.6-12.1,1.4-19.9,2.4v38h-11.5V228c-10.3,1.4-22.1,3-35.4,4.7l-1.4-12.5c12.4-1.1,24.7-2.4,36.8-3.8v-24.8H99.6v-10.8
		c6.4-17.6,11.8-33.3,16.2-47.3H97.4v-11.2h21.8c3-10.4,5.3-19.5,7-27.5l13.2,2.8c-1.8,6.5-4.4,14.7-7.6,24.8h30v11.2h-33.6
		C123.8,146.7,118.5,162.3,112.2,180.3z M180.9,264.3H169V150h37.8v-16.5h-40.2v-11.3h40.2V96.1h12v26.1h46.8v11.3h-46.8V150h38.7
		v94.7c0,11.3-5.2,17.1-15.5,17.4c-5.3,0.1-10.8,0.2-16.5,0.2c-0.7-4.1-1.5-8.5-2.6-13.2c4.9,0.7,9.8,1,14.6,1
		c5.4,0,8.1-2.7,8.1-8.1v-17.7h-26.8v37.6h-12v-37.6h-26V264.3z M180.9,182h26v-21h-26V182z M180.9,213.6h26v-21h-26V213.6z
		 M245.7,161h-26.8v21h26.8V161z M218.9,213.6h26.8v-21h-26.8V213.6z M233,95.5c8.5,5.5,15.7,10.9,21.7,16.2
		c-2.8,2.8-5.6,5.8-8.6,9.3c-6.9-6.5-13.6-12.4-20.3-17.7L233,95.5z"/>
</g>
</svg>
