<?xml version="1.0" encoding="utf-8"?>
<!-- Generator: Adobe Illustrator 22.0.1, SVG Export Plug-In . SVG Version: 6.00 Build 0)  -->
<svg version="1.0" id="图层_1" xmlns="http://www.w3.org/2000/svg" xmlns:xlink="http://www.w3.org/1999/xlink" x="0px" y="0px"
	 viewBox="0 0 360 360" style="enable-background:new 0 0 360 360;" xml:space="preserve">
<style type="text/css">
	.st0{fill-rule:evenodd;clip-rule:evenodd;}
</style>
<g>
	<path class="st0" d="M180.4,15.3c-91.1,0-165,73.9-165,165s73.9,165,165,165s165-73.9,165-165S271.6,15.3,180.4,15.3z M180.4,326.9
		c-81,0-146.7-65.7-146.7-146.7S99.4,33.6,180.4,33.6s146.7,65.7,146.7,146.7S261.4,326.9,180.4,326.9z"/>
	<polygon class="st0" points="189.6,134.4 189.6,125.3 189.6,116.1 143.8,116.1 143.8,134.4 171.3,134.4 171.3,262.8 143.8,262.8 
		143.8,281.1 217.1,281.1 217.1,262.8 189.6,262.8 	"/>
	<circle class="st0" cx="175.7" cy="93.2" r="13.8"/>
</g>
</svg>
