<?xml version="1.0" encoding="utf-8"?>
<!-- Generator: Adobe Illustrator 22.0.1, SVG Export Plug-In . SVG Version: 6.00 Build 0)  -->
<svg version="1.0" id="图层_1" xmlns="http://www.w3.org/2000/svg" xmlns:xlink="http://www.w3.org/1999/xlink" x="0px" y="0px"
	 viewBox="0 0 360 360" style="enable-background:new 0 0 360 360;" xml:space="preserve">
<g>
	<g>
		<path d="M313,65.4H38c-15.1,0-27.5,12.1-27.5,27v175.2c0,14.8,12.4,27,27.5,27h275c15.1,0,27.5-12.1,27.5-27V92.4
			C340.5,77.5,328.1,65.4,313,65.4z M326.8,260.9c0,11.1-9.3,20.2-20.6,20.2H44.9c-11.3,0-20.6-9.1-20.6-20.2V146.3h302.5V260.9z
			 M326.8,132.8H24.3V99.1c0-11.1,9.3-20.2,20.6-20.2h261.2c11.3,0,20.6,9.1,20.6,20.2V132.8z M271.7,240.7H258v13.5h13.7V240.7z
			 M299.2,240.7h-13.8v13.5h13.8V240.7z M244.2,240.7h-13.7v13.5h13.7V240.7z M216.7,240.7H203v13.5h13.8V240.7z"/>
	</g>
</g>
</svg>
