<?xml version="1.0" encoding="utf-8"?>
<!-- Generator: Adobe Illustrator 22.0.1, SVG Export Plug-In . SVG Version: 6.00 Build 0)  -->
<svg version="1.0" id="图层_1" xmlns="http://www.w3.org/2000/svg" xmlns:xlink="http://www.w3.org/1999/xlink" x="0px" y="0px"
	 viewBox="0 0 360 360" style="enable-background:new 0 0 360 360;" xml:space="preserve">
<g>
	<g>
		<path d="M308.6,50H51.9c-20.2,0-36.7,16.8-36.7,37.2v186.2c0,20.5,16.5,37.2,36.7,37.2h256.7c20.2,0,36.7-16.8,36.7-37.2V87.2
			C345.2,66.7,328.7,50,308.6,50z M331.5,269.4c0,15.1-12.2,27.4-27.1,27.4H56.1c-14.9,0-27.1-12.3-27.1-27.4V91.1
			C29,76,41.2,63.7,56.1,63.7h248.3c14.9,0,27.1,12.3,27.1,27.4V269.4z M272.8,204.3c-5.1,0-9.5,2.8-11.8,6.9h-34.6l-33.4-99.4
			c-0.1-0.2-0.3-0.4-0.4-0.6c-0.2-0.4-0.4-0.8-0.7-1.2c-0.2-0.3-0.5-0.6-0.8-0.9c-0.4-0.3-0.7-0.6-1.2-0.9c-0.3-0.2-0.7-0.4-1-0.5
			c-0.3-0.1-0.5-0.3-0.8-0.4c-0.2-0.1-0.5,0-0.7,0c-0.4-0.1-0.7-0.1-1.1-0.1c-0.6,0-1.1,0.1-1.6,0.2c-0.2,0-0.3,0-0.5,0.1
			c-0.2,0.1-0.3,0.2-0.5,0.3c-0.5,0.2-1,0.5-1.4,0.8c-0.3,0.2-0.5,0.4-0.8,0.7c-0.4,0.4-0.7,0.8-0.9,1.2c-0.2,0.3-0.3,0.6-0.5,1
			c-0.1,0.3-0.3,0.5-0.4,0.7l-30.1,114.5l-21.1-45.1c-0.1-0.2-0.3-0.4-0.4-0.6c-0.2-0.4-0.5-0.7-0.8-1.1c-0.3-0.3-0.6-0.6-1-0.9
			c-0.2-0.2-0.4-0.4-0.6-0.5c-0.2-0.1-0.4-0.1-0.6-0.2c-0.4-0.2-0.7-0.3-1.1-0.4c-0.5-0.1-1-0.2-1.5-0.2c-0.3,0-0.7,0-1,0.1
			c-0.6,0.1-1.1,0.2-1.6,0.4c-0.1,0.1-0.3,0-0.5,0.1c-0.2,0.1-0.3,0.2-0.4,0.3c-0.5,0.3-0.9,0.6-1.4,1c-0.3,0.2-0.5,0.5-0.7,0.8
			c-0.2,0.2-0.4,0.4-0.6,0.7l-18.6,32.2H80.8c-3.8,0-6.9,3.1-6.9,6.9c0,3.8,3.1,6.9,6.9,6.9h20.6c0.3,0,0.5-0.1,0.7-0.1
			c0.7,0,1.3-0.2,1.9-0.4c0,0,0,0,0.1,0c1.4-0.5,2.7-1.5,3.5-2.9l14-24.2l23.5,50.3c0.5,1.1,1.3,1.9,2.2,2.5c0,0,0,0,0,0
			c0.7,0.5,1.4,0.9,2.2,1.1c0.1,0,0.1,0.1,0.2,0.1c0.2,0.1,0.4,0,0.6,0c0.6,0.1,1.1,0.2,1.7,0.1c0.5,0,1-0.2,1.5-0.4
			c0.2-0.1,0.5-0.1,0.7-0.2c0.1,0,0.1-0.1,0.2-0.1c0.7-0.3,1.3-0.8,1.9-1.4c0,0,0.1-0.1,0.1-0.1c0.7-0.8,1.4-1.7,1.7-2.8l29-110.4
			l27.7,82.3c0,0.2,0.2,0.3,0.2,0.4c0.1,0.2,0.2,0.3,0.3,0.4c0.3,0.6,0.7,1.3,1.2,1.8c0.1,0.1,0.3,0.2,0.5,0.4
			c0.5,0.4,1,0.8,1.6,1.1c0.3,0.1,0.7,0.2,1,0.3c0.5,0.1,1,0.3,1.5,0.3c0.1,0,0.2,0.1,0.3,0.1h39.5c2.4,4.1,6.8,6.9,11.8,6.9
			c7.6,0,13.8-6.1,13.8-13.7C286.5,210.4,280.3,204.3,272.8,204.3z"/>
	</g>
</g>
</svg>
